<?xml version="1.0" standalone="no"?>
<!DOCTYPE svg PUBLIC "-//W3C//DTD SVG 20010904//EN"
 "http://www.w3.org/TR/2001/REC-SVG-20010904/DTD/svg10.dtd">
<svg version="1.0" xmlns="http://www.w3.org/2000/svg"
 width="512.000000pt" height="512.000000pt" viewBox="0 0 512.000000 512.000000"
 preserveAspectRatio="xMidYMid meet">

<g transform="translate(0.000000,512.000000) scale(0.100000,-0.100000)"
fill="#000000" stroke="none">
<path d="M2475 5053 c-778 -26 -1512 -425 -1960 -1068 -212 -304 -346 -632
-417 -1018 -20 -108 -22 -155 -22 -407 0 -306 9 -395 69 -622 248 -953 1038
-1677 2005 -1837 166 -28 229 -33 419 -32 896 1 1708 476 2161 1264 141 246
238 521 292 822 28 162 36 537 14 705 -56 420 -198 790 -431 1125 -484 693
-1286 1095 -2130 1068z m615 -2493 l0 -1250 -345 0 -345 0 0 965 0 965 -185 0
-185 0 0 285 0 285 530 0 530 0 0 -1250z"/>
</g>
</svg>
