<?xml version="1.0" standalone="no"?>
<!DOCTYPE svg PUBLIC "-//W3C//DTD SVG 20010904//EN"
 "http://www.w3.org/TR/2001/REC-SVG-20010904/DTD/svg10.dtd">
<svg version="1.0" xmlns="http://www.w3.org/2000/svg"
 width="512.000000pt" height="512.000000pt" viewBox="0 0 512.000000 512.000000"
 preserveAspectRatio="xMidYMid meet">

<g transform="translate(0.000000,512.000000) scale(0.100000,-0.100000)"
fill="#000000" stroke="none">
<path d="M2475 5053 c-778 -26 -1512 -425 -1960 -1068 -212 -304 -346 -632
-417 -1018 -20 -108 -22 -155 -22 -407 0 -306 9 -395 69 -622 248 -953 1038
-1677 2005 -1837 166 -28 229 -33 419 -32 896 1 1708 476 2161 1264 141 246
238 521 292 822 28 162 36 537 14 705 -56 420 -198 790 -431 1125 -484 693
-1286 1095 -2130 1068z m845 -1503 l0 -290 -485 0 c-267 0 -485 -3 -485 -7 0
-5 -7 -64 -15 -133 -8 -69 -15 -126 -15 -127 0 -2 62 -3 138 -3 386 0 612 -77
807 -274 100 -100 154 -191 197 -326 20 -66 23 -95 23 -240 0 -142 -3 -176
-23 -244 -79 -272 -289 -487 -562 -574 -122 -39 -181 -47 -350 -46 -183 0
-278 17 -410 73 -294 126 -489 393 -507 699 l-6 92 327 0 326 0 0 -37 c0 -83
71 -182 159 -225 56 -27 166 -30 223 -6 56 25 123 92 148 149 24 58 29 148 11
215 -24 91 -114 172 -212 193 -31 7 -207 11 -454 11 l-403 0 -33 41 -32 41 67
631 c36 348 69 642 71 655 l5 22 745 0 745 0 0 -290z"/>
</g>
</svg>
