<?xml version="1.0" standalone="no"?>
<!DOCTYPE svg PUBLIC "-//W3C//DTD SVG 20010904//EN"
 "http://www.w3.org/TR/2001/REC-SVG-20010904/DTD/svg10.dtd">
<svg version="1.0" xmlns="http://www.w3.org/2000/svg"
 width="256.000000pt" height="256.000000pt" viewBox="0 0 256.000000 256.000000"
 preserveAspectRatio="xMidYMid meet">

<g transform="translate(0.000000,256.000000) scale(0.100000,-0.100000)"
fill="#000000" stroke="none">
<path d="M1150 2554 c-14 -2 -56 -9 -95 -15 -172 -27 -389 -121 -534 -229
-257 -192 -428 -462 -497 -782 -25 -116 -25 -380 0 -496 111 -516 492 -897
1008 -1008 117 -26 380 -25 498 0 452 97 817 418 961 843 51 150 63 233 63
413 0 235 -39 398 -142 594 -176 335 -488 572 -862 657 -81 19 -340 34 -400
23z m307 -159 c237 -38 430 -135 607 -305 96 -92 195 -230 245 -343 133 -297
133 -637 1 -933 -28 -62 -113 -197 -159 -254 l-20 -25 -162 161 -162 162 59
37 c89 57 238 214 334 353 47 67 85 128 85 135 0 11 -626 378 -705 413 -24 11
-56 14 -101 12 -67 -4 -89 -14 -171 -80 l-28 -22 -27 22 c-83 66 -105 76 -173
80 -58 4 -76 0 -121 -22 l-53 -27 -185 186 -186 186 25 20 c57 47 192 131 255
159 199 89 428 120 642 85z m-853 -544 c168 -169 169 -169 145 -184 -13 -8
-121 -70 -239 -137 -118 -68 -221 -128 -228 -135 -9 -8 0 -30 44 -100 160
-255 345 -413 571 -491 141 -48 219 -57 428 -51 131 4 201 10 257 24 l76 20
184 -184 183 -184 -25 -20 c-57 -46 -192 -131 -254 -159 -434 -194 -942 -98
-1272 242 -327 335 -415 828 -224 1252 40 90 161 276 180 276 3 0 81 -76 174
-169z m585 -267 l91 -76 91 76 c68 57 98 76 120 76 19 0 91 -35 200 -97 l170
-98 -48 -7 c-163 -24 -206 -33 -283 -60 -47 -17 -107 -41 -134 -55 l-49 -25
-163 163 c-90 89 -161 166 -158 171 3 4 20 8 39 8 27 0 51 -15 124 -76z m-214
-105 c50 -51 81 -88 70 -84 -66 24 -158 45 -243 55 -53 7 -98 13 -99 14 -3 2
168 104 177 105 3 1 46 -40 95 -90z m-70 -199 c39 -10 113 -37 164 -60 55 -25
119 -45 159 -51 l67 -10 117 -117 c111 -110 117 -117 95 -126 -12 -6 -114 -10
-227 -11 -185 0 -213 2 -284 23 -163 47 -310 146 -428 286 -32 38 -58 73 -58
77 0 24 290 16 395 -11z m1143 15 c2 -1 -23 -36 -56 -76 -74 -94 -164 -175
-239 -216 l-59 -32 -118 118 -118 118 74 31 c139 58 230 72 398 65 63 -3 116
-7 118 -8z"/>
</g>
</svg>
