<?xml version="1.0" standalone="no"?>
<!DOCTYPE svg PUBLIC "-//W3C//DTD SVG 20010904//EN"
 "http://www.w3.org/TR/2001/REC-SVG-20010904/DTD/svg10.dtd">
<svg version="1.0" xmlns="http://www.w3.org/2000/svg"
 width="512.000000pt" height="512.000000pt" viewBox="0 0 512.000000 512.000000"
 preserveAspectRatio="xMidYMid meet">

<g transform="translate(0.000000,512.000000) scale(0.100000,-0.100000)"
fill="#000000" stroke="none">
<path d="M2475 5053 c-778 -26 -1512 -425 -1960 -1068 -212 -304 -346 -632
-417 -1018 -20 -108 -22 -155 -22 -407 0 -306 9 -395 69 -622 248 -953 1038
-1677 2005 -1837 166 -28 229 -33 419 -32 896 1 1708 476 2161 1264 141 246
238 521 292 822 28 162 36 537 14 705 -56 420 -198 790 -431 1125 -484 693
-1286 1095 -2130 1068z m308 -1234 c107 -21 220 -65 315 -121 72 -43 198 -168
241 -242 104 -174 135 -408 85 -630 -47 -204 -193 -441 -498 -807 l-116 -139
340 0 340 0 0 -300 0 -300 -930 0 -930 0 0 81 0 80 133 157 c206 242 563 674
662 801 302 385 382 555 330 702 -30 85 -108 140 -197 138 -66 -1 -110 -16
-148 -53 -46 -43 -63 -83 -68 -163 l-5 -73 -335 0 -335 0 6 118 c18 378 236
651 592 741 107 27 119 28 278 30 105 1 164 -4 240 -20z"/>
</g>
</svg>
