<?xml version="1.0" standalone="no"?>
<!DOCTYPE svg PUBLIC "-//W3C//DTD SVG 20010904//EN"
 "http://www.w3.org/TR/2001/REC-SVG-20010904/DTD/svg10.dtd">
<svg version="1.0" xmlns="http://www.w3.org/2000/svg"
 width="512.000000pt" height="512.000000pt" viewBox="0 0 512.000000 512.000000"
 preserveAspectRatio="xMidYMid meet">

<g transform="translate(0.000000,512.000000) scale(0.100000,-0.100000)"
fill="#000000" stroke="none">
<path d="M2475 5053 c-778 -26 -1512 -425 -1960 -1068 -212 -304 -346 -632
-417 -1018 -20 -108 -22 -155 -22 -407 0 -306 9 -395 69 -622 248 -953 1038
-1677 2005 -1837 166 -28 229 -33 419 -32 896 1 1708 476 2161 1264 141 246
238 521 292 822 28 162 36 537 14 705 -56 420 -198 790 -431 1125 -484 693
-1286 1095 -2130 1068z m935 -1274 l0 -61 -249 -399 -249 -398 31 -7 c53 -11
175 -71 242 -119 127 -90 223 -227 275 -390 32 -99 39 -318 15 -436 -83 -415
-452 -689 -925 -689 -305 0 -565 113 -731 318 -104 129 -174 304 -186 470 l-6
82 327 0 326 0 0 -30 c0 -48 38 -135 77 -175 80 -83 217 -105 319 -52 178 91
215 357 67 487 -76 66 -106 72 -380 78 l-243 4 0 72 0 72 191 314 c105 173
194 321 196 327 4 10 -81 13 -406 13 l-411 0 0 290 0 290 860 0 860 0 0 -61z"/>
</g>
</svg>
