<?xml version="1.0" standalone="no"?>
<!DOCTYPE svg PUBLIC "-//W3C//DTD SVG 20010904//EN"
 "http://www.w3.org/TR/2001/REC-SVG-20010904/DTD/svg10.dtd">
<svg version="1.0" xmlns="http://www.w3.org/2000/svg"
 width="600.000000pt" height="600.000000pt" viewBox="0 0 600.000000 600.000000"
 preserveAspectRatio="xMidYMid meet">

<g transform="translate(0.000000,600.000000) scale(0.100000,-0.100000)"
fill="#000000" stroke="none">
<path d="M2001 5174 c-36 -7 -92 -22 -125 -33 -34 -11 -86 -25 -116 -31 -30
-7 -101 -34 -157 -61 -131 -63 -214 -137 -267 -241 -21 -40 -63 -100 -95 -133
-32 -33 -70 -79 -85 -102 -16 -23 -39 -49 -52 -58 -41 -27 -105 -122 -125
-186 -21 -68 -24 -166 -9 -323 7 -71 7 -103 -1 -113 -6 -7 -68 -45 -138 -85
-149 -85 -228 -156 -271 -241 -26 -52 -30 -71 -30 -142 0 -131 42 -237 144
-368 45 -58 45 -59 31 -93 -22 -53 -49 -83 -128 -144 -40 -31 -78 -69 -86 -85
-24 -50 -26 -133 -3 -196 20 -57 96 -178 163 -259 25 -30 39 -60 44 -90 4 -25
18 -69 31 -99 30 -67 27 -72 -87 -131 -144 -75 -175 -162 -93 -258 20 -23 80
-69 133 -102 54 -33 106 -69 115 -79 17 -18 16 -22 -20 -75 -33 -50 -36 -60
-30 -98 16 -105 82 -189 184 -236 49 -22 53 -26 47 -51 -10 -41 -64 -126 -133
-209 -79 -95 -92 -120 -92 -173 0 -40 5 -48 80 -121 128 -126 123 -155 -38
-230 -120 -56 -152 -80 -152 -116 0 -31 33 -85 65 -106 l24 -16 -19 46 c-40
92 -23 115 124 164 137 45 155 71 132 191 -10 54 -11 79 -3 94 10 19 11 19 18
-7 12 -47 47 -85 119 -132 59 -39 70 -51 70 -74 -1 -56 -45 -85 -176 -117
-109 -27 -136 -42 -164 -88 -34 -55 -20 -157 23 -165 15 -3 15 -1 1 34 -13 31
-14 45 -4 77 9 31 19 42 53 57 23 10 69 21 102 25 33 4 84 13 113 21 69 19
129 77 138 133 l6 38 47 -18 c25 -10 72 -26 105 -34 53 -15 58 -18 53 -40 -2
-14 0 -22 4 -19 5 3 9 12 9 20 0 17 10 18 47 2 95 -41 108 -83 44 -141 -22
-19 -49 -41 -61 -47 -34 -18 -16 -23 23 -6 20 8 56 33 81 56 52 48 48 52 90
-77 l28 -83 1086 0 1086 0 66 68 c41 41 78 92 98 134 85 174 97 344 87 1178
-9 706 -8 780 11 887 31 180 87 263 205 301 91 31 288 78 399 97 101 17 150
37 270 111 126 78 270 128 403 141 74 7 83 20 26 40 -44 16 -115 15 -214 -1
-44 -8 -81 -12 -83 -11 -11 10 229 207 350 287 43 29 77 57 75 63 -6 16 -72 8
-115 -14 -21 -11 -74 -46 -118 -78 -43 -33 -86 -63 -94 -68 -20 -12 71 98 176
212 46 50 84 96 84 102 0 6 -15 11 -32 11 -58 0 -76 -16 -288 -250 l-31 -35
17 35 c9 19 46 79 80 133 35 54 64 100 64 102 0 3 -13 5 -28 5 -35 0 -60 -26
-179 -185 -142 -188 -232 -284 -302 -319 -73 -37 -240 -46 -277 -15 -33 27 -2
117 78 225 61 82 68 96 68 141 -1 33 -24 84 -33 72 -2 -2 -37 -51 -79 -109
-99 -136 -191 -225 -303 -293 -188 -114 -237 -212 -408 -822 -57 -202 -118
-398 -122 -393 -2 2 -40 76 -84 163 -127 252 -207 343 -339 386 -61 20 -96 23
-372 28 -299 7 -342 12 -367 42 -6 8 -18 47 -27 88 -14 60 -15 76 -4 82 11 7
11 9 0 9 -9 0 -12 12 -10 37 3 37 5 39 85 73 44 19 91 44 102 54 30 27 28 86
-6 148 -23 42 -25 51 -12 62 12 12 28 10 109 -12 79 -21 118 -25 235 -26 127
-1 144 1 182 21 60 33 86 70 79 113 -21 121 -21 119 12 131 33 11 62 47 62 77
0 11 -9 31 -20 45 l-21 26 28 18 c15 10 31 22 35 28 16 21 7 59 -22 92 -16 18
-30 38 -30 43 0 4 18 22 39 40 63 49 62 61 -11 139 -68 74 -114 148 -120 195
-2 25 3 32 32 48 19 11 44 29 55 40 11 12 14 17 6 13 -8 -5 -32 -11 -53 -15
l-38 -7 1 36 c1 59 33 157 50 152 36 -9 45 -4 68 44 47 99 38 328 -19 461 -27
63 -25 67 10 14 39 -58 62 -128 71 -215 l8 -70 -4 75 c-3 92 -24 155 -80 240
-49 76 -164 189 -250 247 -188 125 -440 218 -710 259 -115 17 -340 17 -424 -2z
m595 -93 c149 -58 353 -201 443 -312 106 -132 164 -270 165 -394 0 -107 -27
-159 -119 -226 -11 -7 1 8 27 34 112 114 97 267 -46 484 -91 138 -314 325
-478 401 -35 16 -74 34 -88 40 l-25 12 25 -6 c14 -3 57 -18 96 -33z m-947 -83
c-34 -29 -96 -75 -138 -101 -42 -27 -94 -63 -116 -81 -62 -50 -69 -53 -51 -18
46 89 174 189 303 237 65 24 66 17 2 -37z m898 -206 c162 -225 148 -520 -35
-753 -128 -165 -240 -372 -286 -531 -64 -223 -34 -489 87 -756 30 -67 53 -122
50 -122 -2 0 -29 51 -59 113 -114 238 -151 400 -133 590 16 167 34 248 79 351
46 104 146 264 234 371 103 127 156 268 156 420 0 132 -58 275 -158 387 -35
40 -42 50 -18 28 21 -19 58 -63 83 -98z m144 41 c13 -16 12 -17 -3 -4 -17 13
-22 21 -14 21 2 0 10 -8 17 -17z m175 -199 c40 -82 51 -180 31 -279 -22 -105
-72 -206 -203 -411 -124 -195 -186 -319 -214 -430 -27 -105 -26 -132 14 -259
3 -11 -4 0 -16 25 -30 62 -36 191 -13 280 24 96 100 247 215 431 57 90 124
207 149 259 l46 95 0 115 c0 103 -3 121 -26 170 -14 30 -52 87 -83 125 l-58
70 66 -68 c36 -38 77 -93 92 -123z m-1146 79 c-14 -9 -55 -46 -91 -82 -139
-140 -151 -229 -60 -456 64 -161 73 -223 43 -322 -41 -132 -108 -211 -337
-395 -184 -147 -251 -226 -287 -341 -32 -104 -23 -160 68 -417 78 -221 74
-313 -24 -504 -54 -107 -60 -168 -23 -250 11 -27 20 -51 17 -53 -2 -2 -14 20
-27 49 -38 87 -33 155 18 264 95 200 94 263 -4 521 l-67 178 -1 105 c0 96 3
111 30 170 30 66 90 147 148 201 18 17 88 74 157 128 163 128 242 211 283 298
29 61 32 77 32 158 0 84 -3 98 -49 215 -41 105 -49 136 -50 195 -1 87 13 128
70 205 38 51 153 151 173 149 3 0 -5 -7 -19 -16z m725 -10 c-47 -18 -113 -64
-131 -91 -33 -48 -37 -112 -19 -283 18 -158 16 -284 -4 -351 -15 -48 -98 -138
-175 -191 -33 -22 -138 -80 -234 -128 -244 -124 -315 -178 -367 -278 -26 -52
-16 -167 30 -326 34 -116 38 -143 39 -250 0 -108 -2 -127 -26 -188 -38 -95
-81 -156 -201 -282 -57 -60 -109 -120 -115 -132 -31 -57 -6 -146 70 -248 100
-135 158 -269 158 -363 0 -106 -56 -177 -211 -268 -189 -111 -246 -233 -174
-374 51 -101 43 -242 -17 -296 -17 -15 -16 -12 5 20 50 72 49 169 -2 276 -35
74 -40 131 -15 203 21 61 71 111 196 195 165 110 197 158 186 273 -7 65 -78
210 -153 309 -74 97 -95 142 -95 208 0 72 21 109 134 231 172 186 201 247 201
426 0 114 -3 127 -45 265 -38 123 -45 158 -45 230 0 76 3 91 30 139 61 111
128 162 387 298 332 173 377 212 399 341 7 42 5 94 -7 192 -29 245 -9 341 87
404 45 30 111 57 119 48 3 -2 1 -6 -5 -9z m-1376 -310 c-6 -16 -14 -91 -19
-168 -8 -135 -33 -291 -49 -308 -13 -13 -21 235 -10 309 10 70 38 145 66 176
22 25 24 23 12 -9z m-99 -568 c0 -14 -34 -69 -85 -141 -66 -92 -126 -213 -151
-304 -13 -50 -17 -100 -16 -215 l2 -150 -25 30 c-48 57 -103 160 -125 233 -18
58 -21 90 -18 150 9 144 77 225 279 334 122 66 139 74 139 63z m1090 -393
c-70 -216 -84 -463 -36 -645 55 -214 131 -322 416 -597 210 -202 271 -275 319
-382 41 -90 54 -158 49 -246 -7 -123 -28 -157 -254 -412 -92 -103 -130 -169
-146 -256 -14 -77 1 -152 47 -230 27 -45 29 -52 10 -29 -14 17 -38 55 -53 85
-23 48 -27 67 -27 145 0 134 32 194 223 421 137 163 171 261 138 394 -36 146
-122 274 -276 415 -340 310 -453 481 -491 736 -17 115 -6 351 20 456 21 83 80
247 87 241 2 -2 -10 -45 -26 -96z m-1209 -607 c16 -92 6 -150 -36 -216 -48
-75 -105 -190 -105 -211 0 -51 -36 -15 -89 89 -39 78 -54 143 -41 177 5 15 38
44 77 69 69 44 116 91 149 146 10 17 22 27 26 23 4 -4 13 -39 19 -77z m1887
-22 c18 -58 3 -79 -90 -123 -59 -28 -84 -35 -86 -26 -5 24 38 123 80 181 l41
58 22 -27 c12 -15 27 -44 33 -63z m-938 -167 c16 -77 -3 -135 -79 -255 -75
-116 -101 -184 -101 -259 0 -77 30 -138 133 -270 81 -104 127 -171 127 -187 0
-4 -20 19 -45 51 -25 33 -76 97 -114 143 -99 119 -116 156 -116 262 l0 85 73
126 c40 70 79 146 87 169 19 53 19 160 0 223 -8 27 -15 54 -14 60 1 18 37 -89
49 -148z m-967 -708 c63 -93 72 -200 27 -319 -32 -86 -35 -88 -67 -58 -15 14
-64 50 -107 80 -123 83 -163 156 -120 218 9 13 53 40 98 61 44 21 90 45 101
54 11 8 23 16 26 16 4 0 23 -24 42 -52z m1067 -313 c0 -5 -5 -3 -10 5 -5 8
-10 20 -10 25 0 6 5 3 10 -5 5 -8 10 -19 10 -25z m26 -118 c7 -77 -10 -157
-65 -294 -51 -130 -66 -207 -51 -278 14 -68 72 -158 164 -255 52 -54 58 -63
21 -30 -129 115 -194 225 -203 339 -4 64 0 81 54 243 56 166 59 177 59 275 0
107 10 107 21 0z m-427 -875 c14 -67 14 -179 0 -187 -16 -11 -88 42 -95 71 -4
14 -4 41 -1 60 6 38 67 129 78 117 4 -5 12 -32 18 -61z m-377 -24 c4 -43 -4
-49 -19 -15 -7 14 -7 30 -1 47 11 28 15 22 20 -32z m-102 8 c0 -2 -8 -10 -17
-17 -16 -13 -17 -12 -4 4 13 16 21 21 21 13z m549 -138 c26 -69 25 -71 -5 -64
-16 4 -30 9 -31 10 -3 3 20 76 24 76 2 0 7 -10 12 -22z"/>
<path d="M3451 4324 c0 -11 3 -14 6 -6 3 7 2 16 -1 19 -3 4 -6 -2 -5 -13z"/>
<path d="M5102 4178 c-9 -17 -33 -50 -52 -72 -20 -23 -44 -53 -53 -68 -9 -15
-30 -34 -45 -42 -23 -12 -31 -26 -41 -70 -7 -31 -10 -65 -6 -76 8 -25 4 -25
-40 -1 -67 36 -159 -13 -172 -91 -21 -130 84 -221 216 -187 77 19 89 7 38 -40
-34 -33 -38 -41 -22 -41 38 0 205 91 227 124 10 15 0 26 -23 26 -10 0 -19 2
-19 4 0 2 18 42 40 88 51 107 70 183 70 281 0 89 -14 146 -42 177 -28 30 -56
25 -76 -12z"/>
</g>
</svg>
